<svg id="Layer_1" height="512" viewBox="0 0 64 64" width="512" xmlns="http://www.w3.org/2000/svg" data-name="Layer 1"><path d="m23.9 50.959-9.8.013a1.853 1.853 0 0 0 -.1.591c0 1.657 2.239 3 5 3s5-1.343 5-3a1.85 1.85 0 0 0 -.1-.604z" fill="#805e4a"/><g fill="#85624d"><path d="m11.008 57.616a1 1 0 0 1 -.479-1.879l1.77-.962 1.519-2.287a1 1 0 0 1 1.666 1.112l-1.656 2.493a1 1 0 0 1 -.355.325l-1.989 1.082a1 1 0 0 1 -.476.116z"/><path d="m15.97 58.952a1 1 0 0 1 -.942-1.336l1.276-3.58a1 1 0 0 1 1.884.672l-1.276 3.58a1 1 0 0 1 -.942.664z"/><path d="m22.2 58.952a.994.994 0 0 1 -.615-.212l-1.706-1.34a1 1 0 0 1 -.38-.705l-.18-2.159a1 1 0 0 1 1.993-.166l.144 1.724 1.364 1.066a1 1 0 0 1 -.616 1.788z"/><path d="m27.334 57.209a1.148 1.148 0 0 1 -.13-.008l-2.512-.325a1 1 0 0 1 -.66-.378l-1.91-2.452a1 1 0 0 1 1.578-1.229l1.657 2.128 2.1.272a1 1 0 0 1 -.127 1.992z"/></g><path d="m27.782 24.848a7.225 7.225 0 0 1 -3.782-6.285v-9l-3 5-3-10-1 9-3-3v8a7.225 7.225 0 0 1 -3.782 6.285c-4.925 2.752-8.218 7.63-8.218 12.715 0 7.732 7.611 14 17 14s17-6.268 17-14c0-5.085-3.293-9.963-8.218-12.715z" fill="#912044"/><path d="m16.309 51.389-3.8-3.314a15.591 15.591 0 0 1 -.509-21.512s-6.568 3.165-5.784 12.653 10.093 12.173 10.093 12.173z" fill="#6b1832"/><path d="m21.921 51.389 3.8-3.314a15.591 15.591 0 0 0 .512-21.512s6.568 3.165 5.784 12.653-10.096 12.173-10.096 12.173z" fill="#6b1832"/><path d="m14 36.563a40.418 40.418 0 0 1 2-12s-5.129 7.49-3.878 15.211a23.358 23.358 0 0 0 4.512 10.632 3 3 0 0 0 2.366 1.157c-2.761 0-5-8.925-5-15z" fill="#6b1832"/><path d="m22 24.578a40.4 40.4 0 0 1 2 11.985c0 6.075-2.239 15-5 15a2.844 2.844 0 0 0 2.251-1.085 24.814 24.814 0 0 0 4.749-11.502 19.453 19.453 0 0 0 -4-14.398z" fill="#6b1832"/><path d="m54.024 32.07c-2.005-1.119-6.076-3.087-6.883-5.328a1.013 1.013 0 0 0 -.125-.217 1.251 1.251 0 0 0 -2.173.206c-.941 2.246-5.859 4.219-7.867 5.339-4.776 2.667-7.976 7.406-7.976 12.342 0 5.731 4.315 10.624 10.411 12.621a19.3 19.3 0 0 0 3.343.764 18.656 18.656 0 0 0 5.5 0 18.95 18.95 0 0 0 4.475-1.182c5.483-2.209 9.271-6.836 9.271-12.203 0-4.936-3.2-9.675-7.976-12.342z" fill="#fff"/><path d="m62 44.412c0-4.936-3.2-9.675-7.976-12.342-2.005-1.119-6.076-3.087-6.883-5.328a1.013 1.013 0 0 0 -.125-.217c0-.01 0-.02 0-.03l-.04-.019a1.245 1.245 0 0 0 -2.13.255c-.941 2.246-5.859 4.219-7.867 5.339-4.779 2.667-7.979 7.406-7.979 12.342 0 5.731 4.315 10.624 10.411 12.621l.012.013-.006-.012a19.12 19.12 0 0 0 3.337.763 19.948 19.948 0 0 0 2.746.203 16.251 16.251 0 0 1 -2.436-.2 15.7 15.7 0 0 1 -2.965-.747c-.284-.1-.562-.217-.837-.335-.762-1.586-4-8.874-2.131-14.727.606-1.9 2.523-4.725 4.116-6.869 1.409-1.9 3.983-5.758 4.618-8.384a.454.454 0 0 1 .051-.009c.018 0 .036.006.054.006a12.315 12.315 0 0 0 2.2 6.339c2.044 3.126 5.674 7.21 6.139 10.977a23.771 23.771 0 0 1 -1.374 12.089c-.334.179-.675.35-1.025.506a15.609 15.609 0 0 1 -3.971 1.154 16.16 16.16 0 0 1 -2.439.2 20.005 20.005 0 0 0 2.75-.2 18.917 18.917 0 0 0 4.464-1.178l-.012.022c.009-.008.015-.018.023-.026 5.487-2.212 9.275-6.839 9.275-12.206zm-25.59-5.529c-3.326 5.919-1.493 12.83 2.682 17.768a13.218 13.218 0 0 1 -8.229-11.923 14.52 14.52 0 0 1 7.075-12.054 41.727 41.727 0 0 0 5.562-3.432c-1.727 3.679-5.1 6.092-7.09 9.641zm16.921 17.033a10.7 10.7 0 0 0 1.862-3.46 18.4 18.4 0 0 0 .414-10.7 15.785 15.785 0 0 0 -1.607-3.775 30.124 30.124 0 0 0 -3.121-3.9 23.9 23.9 0 0 1 -2.613-3.69 11.336 11.336 0 0 1 -.966-2.191c1.16 1.884 4.178 3.509 5.758 4.479a14.52 14.52 0 0 1 7.075 12.054 13 13 0 0 1 -6.802 11.183z" fill="#912044"/><path d="m41.036 49.9a14.05 14.05 0 0 1 1.608-7.987 19.051 19.051 0 0 1 2.856-3.979 42.789 42.789 0 0 1 2.687 3.672 13.083 13.083 0 0 1 1.807 6.394 30.017 30.017 0 0 1 -.223 4.26 32.719 32.719 0 0 0 .538-6.489 13.993 13.993 0 0 0 -1.934-6.841 45.756 45.756 0 0 0 -2.875-3.93 20.34 20.34 0 0 0 -3.056 4.254 15.028 15.028 0 0 0 -1.721 8.546 38.616 38.616 0 0 0 .516 4.33c-.089-.744-.159-1.489-.203-2.23z" fill="#912044"/></svg>